<?xml version="1.0" encoding="iso-8859-1"?>
<!-- Generator: Adobe Illustrator 19.0.0, SVG Export Plug-In . SVG Version: 6.00 Build 0)  -->
<svg version="1.1" id="Layer_1" xmlns="http://www.w3.org/2000/svg" xmlns:xlink="http://www.w3.org/1999/xlink" x="0px" y="0px"
	 viewBox="0 0 512 512" style="enable-background:new 0 0 512 512;" xml:space="preserve">
<path style="fill:#00A085;" d="M508.691,214.847C489.003,93.03,383.374,0,256,0C114.616,0,0,114.615,0,256
	c0,119.42,81.771,219.738,192.374,248.026L508.691,214.847z"/>
<path style="fill:#007964;" d="M512,256c0-14.011-1.143-27.753-3.309-41.153L333.913,40.07L256,257.113l71.791,71.791
	L144.696,456.348l47.678,47.678C212.718,509.23,234.035,512,256,512C397.384,512,512,397.384,512,256z"/>
<polygon style="fill:#FFD652;" points="309.148,342.539 198.492,343.188 122.435,267.13 178.087,244.87 233.739,267.13 "/>
<polygon style="fill:#FBE287;" points="233.739,267.13 122.435,267.13 89.043,233.739 200.348,233.739 "/>
<polygon style="fill:#FDBA4C;" points="212.73,332.661 324.336,332.359 422.957,233.739 311.652,233.739 "/>
<polygon style="fill:#F7EDBC;" points="256,289.391 207.768,372.87 256,456.348 367.304,456.348 367.304,289.391 "/>
<rect x="144.696" y="289.391" style="fill:#FFFFFF;" width="111.304" height="166.957"/>
<polygon style="fill:#85DC79;" points="367.304,145.809 256,257.113 222.609,148.591 256,40.07 333.913,40.07 333.913,145.809 "/>
<polygon style="fill:#AFF078;" points="256,40.07 256,257.113 144.696,145.809 178.087,145.809 178.087,40.07 "/>
<g>
	<rect x="166.957" y="356.174" style="fill:#F7EDBC;" width="22.261" height="22.261"/>
	<rect x="189.217" y="311.652" style="fill:#F7EDBC;" width="22.261" height="22.261"/>
</g>
<polygon style="fill:#FFD652;" points="345.043,367.304 345.043,389.565 310.823,411.826 276.602,389.565 276.602,367.304 "/>
<rect x="276.602" y="389.565" style="fill:#FFFFFF;" width="68.441" height="44.522"/>
<g>
</g>
<g>
</g>
<g>
</g>
<g>
</g>
<g>
</g>
<g>
</g>
<g>
</g>
<g>
</g>
<g>
</g>
<g>
</g>
<g>
</g>
<g>
</g>
<g>
</g>
<g>
</g>
<g>
</g>
</svg>
